<?xml version="1.0" encoding="UTF-8" standalone="no"?>
<!DOCTYPE svg PUBLIC "-//W3C//DTD SVG 1.1//EN"
 "http://www.w3.org/Graphics/SVG/1.1/DTD/svg11.dtd">
<!-- Generated by graphviz version 2.47.3 (20210619.1520)
 -->
<!-- Title: dependencies Pages: 1 -->
<svg width="544pt" height="174pt"
 viewBox="0.00 0.00 544.00 173.80" xmlns="http://www.w3.org/2000/svg" xmlns:xlink="http://www.w3.org/1999/xlink">
<g id="graph0" class="graph" transform="scale(1 1) rotate(0) translate(4 169.8)">
<title>dependencies</title>
<polygon fill="white" stroke="transparent" points="-4,4 -4,-169.8 540,-169.8 540,4 -4,4"/>
<text text-anchor="middle" x="268" y="-8.2" font-family="sans-serif" font-size="14.00">dependencies</text>
<g id="clust1" class="cluster">
<title>cluster_BookingModule</title>
<polygon fill="none" stroke="black" stroke-dasharray="1,5" points="8,-32.8 8,-157.8 528,-157.8 528,-32.8 8,-32.8"/>
</g>
<g id="clust6" class="cluster">
<title>cluster_BookingModule_providers</title>
<polygon fill="none" stroke="black" points="16,-40.8 16,-92.8 520,-92.8 520,-40.8 16,-40.8"/>
</g>
<!-- BookingService -->
<g id="node1" class="node">
<title>BookingService</title>
<ellipse fill="#fdb462" stroke="black" cx="439" cy="-66.8" rx="73.02" ry="18"/>
<text text-anchor="middle" x="439" y="-62.6" font-family="Times,serif" font-size="14.00">BookingService</text>
</g>
<!-- BookingModule -->
<g id="node4" class="node">
<title>BookingModule</title>
<polygon fill="#8dd3c7" stroke="black" points="322.78,-149.8 319.78,-153.8 298.78,-153.8 295.78,-149.8 215.22,-149.8 215.22,-113.8 322.78,-113.8 322.78,-149.8"/>
<text text-anchor="middle" x="269" y="-127.6" font-family="Times,serif" font-size="14.00">BookingModule</text>
</g>
<!-- BookingService&#45;&gt;BookingModule -->
<g id="edge1" class="edge">
<title>BookingService&#45;&gt;BookingModule</title>
<path fill="none" stroke="black" d="M439,-84.91C439,-104.14 439,-131.8 439,-131.8 439,-131.8 332.79,-131.8 332.79,-131.8"/>
<polygon fill="black" stroke="black" points="332.79,-128.3 322.79,-131.8 332.79,-135.3 332.79,-128.3"/>
</g>
<!-- ConfigureService -->
<g id="node2" class="node">
<title>ConfigureService</title>
<ellipse fill="#fdb462" stroke="black" cx="269" cy="-66.8" rx="79.29" ry="18"/>
<text text-anchor="middle" x="269" y="-62.6" font-family="Times,serif" font-size="14.00">ConfigureService</text>
</g>
<!-- ConfigureService&#45;&gt;BookingModule -->
<g id="edge2" class="edge">
<title>ConfigureService&#45;&gt;BookingModule</title>
<path fill="none" stroke="black" d="M269,-84.91C269,-84.91 269,-103.79 269,-103.79"/>
<polygon fill="black" stroke="black" points="265.5,-103.79 269,-113.79 272.5,-103.79 265.5,-103.79"/>
</g>
<!-- StaffinfoService -->
<g id="node3" class="node">
<title>StaffinfoService</title>
<ellipse fill="#fdb462" stroke="black" cx="98" cy="-66.8" rx="74.13" ry="18"/>
<text text-anchor="middle" x="98" y="-62.6" font-family="Times,serif" font-size="14.00">StaffinfoService</text>
</g>
<!-- StaffinfoService&#45;&gt;BookingModule -->
<g id="edge3" class="edge">
<title>StaffinfoService&#45;&gt;BookingModule</title>
<path fill="none" stroke="black" d="M98,-84.91C98,-104.14 98,-131.8 98,-131.8 98,-131.8 204.89,-131.8 204.89,-131.8"/>
<polygon fill="black" stroke="black" points="204.89,-135.3 214.89,-131.8 204.89,-128.3 204.89,-135.3"/>
</g>
</g>
</svg>
