<?xml version="1.0" encoding="UTF-8" standalone="no"?>
<!DOCTYPE svg PUBLIC "-//W3C//DTD SVG 1.1//EN"
 "http://www.w3.org/Graphics/SVG/1.1/DTD/svg11.dtd">
<!-- Generated by graphviz version 2.47.3 (20210619.1520)
 -->
<!-- Title: dependencies Pages: 1 -->
<svg width="668pt" height="174pt"
 viewBox="0.00 0.00 668.00 173.80" xmlns="http://www.w3.org/2000/svg" xmlns:xlink="http://www.w3.org/1999/xlink">
<g id="graph0" class="graph" transform="scale(1 1) rotate(0) translate(4 169.8)">
<title>dependencies</title>
<polygon fill="white" stroke="transparent" points="-4,4 -4,-169.8 664,-169.8 664,4 -4,4"/>
<text text-anchor="middle" x="330" y="-8.2" font-family="sans-serif" font-size="14.00">dependencies</text>
<g id="clust1" class="cluster">
<title>cluster_AppModule</title>
<polygon fill="none" stroke="black" stroke-dasharray="1,5" points="8,-32.8 8,-157.8 652,-157.8 652,-32.8 8,-32.8"/>
</g>
<g id="clust3" class="cluster">
<title>cluster_AppModule_imports</title>
<polygon fill="none" stroke="black" points="154,-40.8 154,-92.8 644,-92.8 644,-40.8 154,-40.8"/>
</g>
<g id="clust6" class="cluster">
<title>cluster_AppModule_providers</title>
<polygon fill="none" stroke="black" points="16,-40.8 16,-92.8 146,-92.8 146,-40.8 16,-40.8"/>
</g>
<!-- BookingModule -->
<g id="node1" class="node">
<title>BookingModule</title>
<polygon fill="#8dd3c7" stroke="black" points="635.78,-84.8 632.78,-88.8 611.78,-88.8 608.78,-84.8 528.22,-84.8 528.22,-48.8 635.78,-48.8 635.78,-84.8"/>
<text text-anchor="middle" x="582" y="-62.6" font-family="Times,serif" font-size="14.00">BookingModule</text>
</g>
<!-- AppModule -->
<g id="node5" class="node">
<title>AppModule</title>
<polygon fill="#8dd3c7" stroke="black" points="362.66,-149.8 359.66,-153.8 338.66,-153.8 335.66,-149.8 279.34,-149.8 279.34,-113.8 362.66,-113.8 362.66,-149.8"/>
<text text-anchor="middle" x="321" y="-127.6" font-family="Times,serif" font-size="14.00">AppModule</text>
</g>
<!-- BookingModule&#45;&gt;AppModule -->
<g id="edge1" class="edge">
<title>BookingModule&#45;&gt;AppModule</title>
<path fill="none" stroke="black" d="M582,-85.08C582,-106.12 582,-137.8 582,-137.8 582,-137.8 372.93,-137.8 372.93,-137.8"/>
<polygon fill="black" stroke="black" points="372.93,-134.3 362.93,-137.8 372.93,-141.3 372.93,-134.3"/>
</g>
<!-- ConfigureModule -->
<g id="node2" class="node">
<title>ConfigureModule</title>
<polygon fill="#8dd3c7" stroke="black" points="510.31,-84.8 507.31,-88.8 486.31,-88.8 483.31,-84.8 393.69,-84.8 393.69,-48.8 510.31,-48.8 510.31,-84.8"/>
<text text-anchor="middle" x="452" y="-62.6" font-family="Times,serif" font-size="14.00">ConfigureModule</text>
</g>
<!-- ConfigureModule&#45;&gt;AppModule -->
<g id="edge2" class="edge">
<title>ConfigureModule&#45;&gt;AppModule</title>
<path fill="none" stroke="black" d="M452,-84.82C452,-102.17 452,-125.8 452,-125.8 452,-125.8 372.81,-125.8 372.81,-125.8"/>
<polygon fill="black" stroke="black" points="372.81,-122.3 362.81,-125.8 372.81,-129.3 372.81,-122.3"/>
</g>
<!-- StaffinfoModule -->
<g id="node3" class="node">
<title>StaffinfoModule</title>
<polygon fill="#8dd3c7" stroke="black" points="375.81,-84.8 372.81,-88.8 351.81,-88.8 348.81,-84.8 266.19,-84.8 266.19,-48.8 375.81,-48.8 375.81,-84.8"/>
<text text-anchor="middle" x="321" y="-62.6" font-family="Times,serif" font-size="14.00">StaffinfoModule</text>
</g>
<!-- StaffinfoModule&#45;&gt;AppModule -->
<g id="edge3" class="edge">
<title>StaffinfoModule&#45;&gt;AppModule</title>
<path fill="none" stroke="black" d="M321,-84.91C321,-84.91 321,-103.79 321,-103.79"/>
<polygon fill="black" stroke="black" points="317.5,-103.79 321,-113.79 324.5,-103.79 317.5,-103.79"/>
</g>
<!-- UserModule -->
<g id="node4" class="node">
<title>UserModule</title>
<polygon fill="#8dd3c7" stroke="black" points="247.98,-84.8 244.98,-88.8 223.98,-88.8 220.98,-84.8 162.02,-84.8 162.02,-48.8 247.98,-48.8 247.98,-84.8"/>
<text text-anchor="middle" x="205" y="-62.6" font-family="Times,serif" font-size="14.00">UserModule</text>
</g>
<!-- UserModule&#45;&gt;AppModule -->
<g id="edge4" class="edge">
<title>UserModule&#45;&gt;AppModule</title>
<path fill="none" stroke="black" d="M205,-84.82C205,-102.17 205,-125.8 205,-125.8 205,-125.8 269.12,-125.8 269.12,-125.8"/>
<polygon fill="black" stroke="black" points="269.12,-129.3 279.12,-125.8 269.12,-122.3 269.12,-129.3"/>
</g>
<!-- AppService -->
<g id="node6" class="node">
<title>AppService</title>
<ellipse fill="#fdb462" stroke="black" cx="81" cy="-66.8" rx="56.74" ry="18"/>
<text text-anchor="middle" x="81" y="-62.6" font-family="Times,serif" font-size="14.00">AppService</text>
</g>
<!-- AppService&#45;&gt;AppModule -->
<g id="edge5" class="edge">
<title>AppService&#45;&gt;AppModule</title>
<path fill="none" stroke="black" d="M81,-85.08C81,-106.12 81,-137.8 81,-137.8 81,-137.8 269.2,-137.8 269.2,-137.8"/>
<polygon fill="black" stroke="black" points="269.2,-141.3 279.2,-137.8 269.2,-134.3 269.2,-141.3"/>
</g>
</g>
</svg>
